<svg xmlns="http://www.w3.org/2000/svg" viewBox="0 0 1200 1500" width="1200" height="1500" role="img" aria-label="Freya &amp; Oskar wedding website preview"><rect x="0" y="0" width="1200" height="1500" fill="#f3f5ef"/><rect x="0" y="0" width="1200" height="6" fill="#4f6b45" opacity="0.9"/><text x="60" y="96" fill="#26301f" font-family="Georgia, 'Times New Roman', serif" font-size="34" font-weight="400" text-anchor="start" letter-spacing="8" opacity="1">F &amp; O</text><text x="1140" y="96" fill="#78836c" font-family="Helvetica, Arial, sans-serif" font-size="15" font-weight="400" text-anchor="end" letter-spacing="3" opacity="1">MENU</text>
  <defs>
    <linearGradient id="phero" x1="0" y1="0" x2="1" y2="1">
      <stop offset="0" stop-color="#dde6d4"/>
      <stop offset="1" stop-color="#c9d8bf"/>
    </linearGradient>
  </defs>
  <rect x="0" y="140" width="1200" height="660" fill="url(#phero)"/>
  <circle cx="600" cy="470" r="86" fill="none" stroke="#eaf0e4" stroke-width="1.5" opacity="0.6"/><text x="600" y="496" fill="#26301f" font-family="Georgia, 'Times New Roman', serif" font-size="100" font-weight="400" text-anchor="middle" letter-spacing="0" opacity="1">Freya &amp; Oskar</text><text x="600" y="552" fill="#26301f" font-family="Helvetica, Arial, sans-serif" font-size="22" font-weight="400" text-anchor="middle" letter-spacing="6" opacity="1">27 . 06 . 2026</text><text x="600" y="596" fill="#26301f" font-family="Georgia, 'Times New Roman', serif" font-size="28" font-weight="400" font-style="italic" text-anchor="middle" letter-spacing="0" opacity="1">Copenhagen</text><text x="60" y="848" fill="#78836c" font-family="Helvetica, Arial, sans-serif" font-size="13" font-weight="400" text-anchor="start" letter-spacing="3" opacity="1">THE DATE</text><rect x="60" y="864" width="316" height="9" fill="#26301f" rx="4" opacity="0.45"/><text x="420" y="848" fill="#78836c" font-family="Helvetica, Arial, sans-serif" font-size="13" font-weight="400" text-anchor="start" letter-spacing="3" opacity="1">CEREMONY</text><rect x="420" y="864" width="316" height="9" fill="#26301f" rx="4" opacity="0.45"/><text x="780" y="848" fill="#78836c" font-family="Helvetica, Arial, sans-serif" font-size="13" font-weight="400" text-anchor="start" letter-spacing="3" opacity="1">RECEPTION</text><rect x="780" y="864" width="316" height="9" fill="#26301f" rx="4" opacity="0.45"/><rect x="60" y="940" width="1080" height="1" fill="#d9e0d0"/><text x="60" y="1008" fill="#78836c" font-family="Helvetica, Arial, sans-serif" font-size="14" font-weight="400" text-anchor="start" letter-spacing="5" opacity="1">OUR STORY</text><text x="60" y="1076" fill="#26301f" font-family="Georgia, 'Times New Roman', serif" font-size="64" font-weight="400" text-anchor="start" letter-spacing="0" opacity="1">How we found</text><text x="60" y="1142" fill="#26301f" font-family="Georgia, 'Times New Roman', serif" font-size="64" font-weight="400" text-anchor="start" letter-spacing="0" opacity="1">each other</text><rect x="60" y="1208" width="1080" height="7" fill="#26301f" rx="4" opacity="0.42"/><rect x="60" y="1232" width="1080" height="7" fill="#26301f" rx="4" opacity="0.42"/><rect x="60" y="1256" width="1080" height="7" fill="#26301f" rx="4" opacity="0.42"/><rect x="60" y="1280" width="713" height="7" fill="#26301f" rx="4" opacity="0.42"/>
  <defs>
    <linearGradient id="pg0a" x1="0" y1="0" x2="1" y2="1">
      <stop offset="0" stop-color="#dde6d4"/>
      <stop offset="1" stop-color="#c9d8bf"/>
    </linearGradient>
  </defs>
  <rect x="60" y="1348" width="530" height="392" fill="url(#pg0a)" rx="2"/>
  <circle cx="325" cy="1544" r="51" fill="none" stroke="#eaf0e4" stroke-width="1.5" opacity="0.6"/>
  <defs>
    <linearGradient id="pg0b" x1="0" y1="0" x2="1" y2="1">
      <stop offset="0" stop-color="#c9d8bf"/>
      <stop offset="1" stop-color="#eaf0e4"/>
    </linearGradient>
  </defs>
  <rect x="610" y="1348" width="530" height="392" fill="url(#pg0b)" rx="2"/>
  <circle cx="875" cy="1544" r="51" fill="none" stroke="#dde6d4" stroke-width="1.5" opacity="0.6"/></svg>