<svg xmlns="http://www.w3.org/2000/svg" viewBox="0 0 1600 1000" width="1600" height="1000" role="img" aria-label="Sofia &amp; Marco our story page"><rect x="0" y="0" width="1600" height="1000" fill="#f4f6f8"/>
     
  <rect x="0" y="0" width="1600" height="5" fill="#6f8497" opacity="0.9"/>
  <text x="72" y="96" fill="#22282e" font-family="Georgia, 'Times New Roman', serif" font-size="30" font-weight="400" text-anchor="start" letter-spacing="8" opacity="1">S &amp; M</text>
  <text x="1528" y="96" fill="#77828d" font-family="Helvetica, Arial, sans-serif" font-size="15" font-weight="400" text-anchor="end" letter-spacing="3" opacity="1">OUR STORY   DETAILS   GALLERY   RSVP</text>
  <rect x="0" y="132" width="1600" height="1" fill="#d8dee4"/>
     
  <defs>
    <linearGradient id="story" x1="0" y1="0" x2="1" y2="1">
      <stop offset="0" stop-color="#dae2e8"/>
      <stop offset="1" stop-color="#c6d2dc"/>
    </linearGradient>
  </defs>
  <rect x="0" y="133" width="720" height="867" fill="url(#story)"/>
  <circle cx="360" cy="566.5" r="94" fill="none" stroke="#e8eef2" stroke-width="1.5" opacity="0.6"/>
     <text x="820" y="300" fill="#77828d" font-family="Helvetica, Arial, sans-serif" font-size="15" font-weight="400" text-anchor="start" letter-spacing="5" opacity="1">OUR STORY</text>
     <text x="820" y="396" fill="#22282e" font-family="Georgia, 'Times New Roman', serif" font-size="62" font-weight="400" text-anchor="start" letter-spacing="0" opacity="1">How we found</text>
     <text x="820" y="466" fill="#22282e" font-family="Georgia, 'Times New Roman', serif" font-size="62" font-weight="400" text-anchor="start" letter-spacing="0" opacity="1">each other</text>
     <rect x="820" y="530" width="620" height="7" fill="#22282e" rx="4" opacity="0.42"/><rect x="820" y="554" width="620" height="7" fill="#22282e" rx="4" opacity="0.42"/><rect x="820" y="578" width="620" height="7" fill="#22282e" rx="4" opacity="0.42"/><rect x="820" y="602" width="409" height="7" fill="#22282e" rx="4" opacity="0.42"/>
     <text x="820" y="724" fill="#6f8497" font-family="Georgia, 'Times New Roman', serif" font-size="30" font-weight="400" font-style="italic" text-anchor="start" letter-spacing="0" opacity="1">“We said yes long before the ceremony.”</text>
     <rect x="820" y="790" width="90" height="1" fill="#d8dee4"/></svg>