<svg xmlns="http://www.w3.org/2000/svg" viewBox="0 0 1600 1000" width="1600" height="1000" role="img" aria-label="Camille &amp; Antoine gallery page"><rect x="0" y="0" width="1600" height="1000" fill="#f7f2f1"/>
     
  <rect x="0" y="0" width="1600" height="5" fill="#6c2b33" opacity="0.9"/>
  <text x="72" y="96" fill="#2a1c1e" font-family="Georgia, 'Times New Roman', serif" font-size="30" font-weight="400" text-anchor="start" letter-spacing="8" opacity="1">C &amp; A</text>
  <text x="1528" y="96" fill="#8a7576" font-family="Helvetica, Arial, sans-serif" font-size="15" font-weight="400" text-anchor="end" letter-spacing="3" opacity="1">OUR STORY   DETAILS   GALLERY   RSVP</text>
  <rect x="0" y="132" width="1600" height="1" fill="#e3d5d5"/>
     <text x="72" y="232" fill="#8a7576" font-family="Helvetica, Arial, sans-serif" font-size="15" font-weight="400" text-anchor="start" letter-spacing="5" opacity="1">GALLERY</text>
     <text x="72" y="296" fill="#2a1c1e" font-family="Georgia, 'Times New Roman', serif" font-size="52" font-weight="400" text-anchor="start" letter-spacing="0" opacity="1">Moments together</text>
     
  <defs>
    <linearGradient id="g0" x1="0" y1="0" x2="1" y2="1">
      <stop offset="0" stop-color="#e6d3d4"/>
      <stop offset="1" stop-color="#e6d3d4"/>
    </linearGradient>
  </defs>
  <rect x="72" y="360" width="464" height="268" fill="url(#g0)" rx="2"/>
  <circle cx="304" cy="494" r="35" fill="none" stroke="#efe2e2" stroke-width="1.5" opacity="0.6"/>
  <defs>
    <linearGradient id="g1" x1="0" y1="0" x2="1" y2="1">
      <stop offset="0" stop-color="#d8bcbe"/>
      <stop offset="1" stop-color="#d8bcbe"/>
    </linearGradient>
  </defs>
  <rect x="568" y="360" width="464" height="268" fill="url(#g1)" rx="2"/>
  <circle cx="800" cy="494" r="35" fill="none" stroke="#efe2e2" stroke-width="1.5" opacity="0.6"/>
  <defs>
    <linearGradient id="g2" x1="0" y1="0" x2="1" y2="1">
      <stop offset="0" stop-color="#efe2e2"/>
      <stop offset="1" stop-color="#e6d3d4"/>
    </linearGradient>
  </defs>
  <rect x="1064" y="360" width="464" height="268" fill="url(#g2)" rx="2"/>
  <circle cx="1296" cy="494" r="35" fill="none" stroke="#efe2e2" stroke-width="1.5" opacity="0.6"/>
  <defs>
    <linearGradient id="g3" x1="0" y1="0" x2="1" y2="1">
      <stop offset="0" stop-color="#d8bcbe"/>
      <stop offset="1" stop-color="#efe2e2"/>
    </linearGradient>
  </defs>
  <rect x="72" y="660" width="464" height="268" fill="url(#g3)" rx="2"/>
  <circle cx="304" cy="794" r="35" fill="none" stroke="#efe2e2" stroke-width="1.5" opacity="0.6"/>
  <defs>
    <linearGradient id="g4" x1="0" y1="0" x2="1" y2="1">
      <stop offset="0" stop-color="#efe2e2"/>
      <stop offset="1" stop-color="#d8bcbe"/>
    </linearGradient>
  </defs>
  <rect x="568" y="660" width="464" height="268" fill="url(#g4)" rx="2"/>
  <circle cx="800" cy="794" r="35" fill="none" stroke="#efe2e2" stroke-width="1.5" opacity="0.6"/>
  <defs>
    <linearGradient id="g5" x1="0" y1="0" x2="1" y2="1">
      <stop offset="0" stop-color="#e6d3d4"/>
      <stop offset="1" stop-color="#efe2e2"/>
    </linearGradient>
  </defs>
  <rect x="1064" y="660" width="464" height="268" fill="url(#g5)" rx="2"/>
  <circle cx="1296" cy="794" r="35" fill="none" stroke="#efe2e2" stroke-width="1.5" opacity="0.6"/></svg>